<mxfile host="app.diagrams.net" agent="Mozilla/5.0 (X11; Linux x86_64; rv:143.0) Gecko/20100101 Firefox/143.0" version="28.2.4">
  <diagram name="Page-1" id="suuexSSgnGuTv5H7utfE">
    <mxGraphModel dx="1680" dy="1221" grid="0" gridSize="10" guides="1" tooltips="1" connect="1" arrows="1" fold="1" page="0" pageScale="1" pageWidth="850" pageHeight="1100" math="0" shadow="0">
      <root>
        <mxCell id="0" />
        <mxCell id="1" parent="0" />
        <mxCell id="VGy0ibJ3Ez5lEhXvUC-4-1" value="InÃ­cio" style="ellipse;whiteSpace=wrap;html=1;aspect=fixed;fontSize=22;strokeWidth=3;" parent="1" vertex="1">
          <mxGeometry x="65" y="-134" width="80" height="80" as="geometry" />
        </mxCell>
        <mxCell id="VGy0ibJ3Ez5lEhXvUC-4-2" value="Fim" style="ellipse;whiteSpace=wrap;html=1;aspect=fixed;fontSize=22;strokeWidth=3;" parent="1" vertex="1">
          <mxGeometry x="65" y="271" width="80" height="80" as="geometry" />
        </mxCell>
        <mxCell id="VGy0ibJ3Ez5lEhXvUC-4-3" value="T1" style="ellipse;whiteSpace=wrap;html=1;aspect=fixed;fontSize=22;strokeWidth=3;" parent="1" vertex="1">
          <mxGeometry x="-254.5" y="25" width="80" height="80" as="geometry" />
        </mxCell>
        <mxCell id="VGy0ibJ3Ez5lEhXvUC-4-4" value="T2" style="ellipse;whiteSpace=wrap;html=1;aspect=fixed;fontSize=22;strokeWidth=3;" parent="1" vertex="1">
          <mxGeometry x="-125.5" y="25" width="80" height="80" as="geometry" />
        </mxCell>
        <mxCell id="VGy0ibJ3Ez5lEhXvUC-4-5" value="T3" style="ellipse;whiteSpace=wrap;html=1;aspect=fixed;fontSize=22;strokeWidth=3;" parent="1" vertex="1">
          <mxGeometry x="3.5" y="25" width="80" height="80" as="geometry" />
        </mxCell>
        <mxCell id="VGy0ibJ3Ez5lEhXvUC-4-6" value="T4" style="ellipse;whiteSpace=wrap;html=1;aspect=fixed;fontSize=22;strokeWidth=3;" parent="1" vertex="1">
          <mxGeometry x="126.5" y="25" width="80" height="80" as="geometry" />
        </mxCell>
        <mxCell id="VGy0ibJ3Ez5lEhXvUC-4-7" value="T5" style="ellipse;whiteSpace=wrap;html=1;aspect=fixed;fontSize=22;strokeWidth=3;" parent="1" vertex="1">
          <mxGeometry x="255.5" y="25" width="80" height="80" as="geometry" />
        </mxCell>
        <mxCell id="VGy0ibJ3Ez5lEhXvUC-4-8" value="T6" style="ellipse;whiteSpace=wrap;html=1;aspect=fixed;fontSize=22;strokeWidth=3;" parent="1" vertex="1">
          <mxGeometry x="384.5" y="25" width="80" height="80" as="geometry" />
        </mxCell>
        <mxCell id="VGy0ibJ3Ez5lEhXvUC-4-9" value="" style="endArrow=classic;html=1;rounded=0;exitX=0.5;exitY=1;exitDx=0;exitDy=0;entryX=0.5;entryY=0;entryDx=0;entryDy=0;fontSize=22;strokeWidth=3;" parent="1" source="VGy0ibJ3Ez5lEhXvUC-4-1" target="VGy0ibJ3Ez5lEhXvUC-4-3" edge="1">
          <mxGeometry width="50" height="50" relative="1" as="geometry">
            <mxPoint x="133" y="234" as="sourcePoint" />
            <mxPoint x="183" y="184" as="targetPoint" />
          </mxGeometry>
        </mxCell>
        <mxCell id="VGy0ibJ3Ez5lEhXvUC-4-10" value="" style="endArrow=classic;html=1;rounded=0;exitX=0.5;exitY=1;exitDx=0;exitDy=0;entryX=0.5;entryY=0;entryDx=0;entryDy=0;fontSize=22;strokeWidth=3;" parent="1" source="VGy0ibJ3Ez5lEhXvUC-4-1" target="VGy0ibJ3Ez5lEhXvUC-4-4" edge="1">
          <mxGeometry width="50" height="50" relative="1" as="geometry">
            <mxPoint x="133" y="234" as="sourcePoint" />
            <mxPoint x="183" y="184" as="targetPoint" />
          </mxGeometry>
        </mxCell>
        <mxCell id="VGy0ibJ3Ez5lEhXvUC-4-11" value="" style="endArrow=classic;html=1;rounded=0;exitX=0.5;exitY=1;exitDx=0;exitDy=0;entryX=0.5;entryY=0;entryDx=0;entryDy=0;fontSize=22;strokeWidth=3;" parent="1" source="VGy0ibJ3Ez5lEhXvUC-4-1" target="VGy0ibJ3Ez5lEhXvUC-4-5" edge="1">
          <mxGeometry width="50" height="50" relative="1" as="geometry">
            <mxPoint x="133" y="234" as="sourcePoint" />
            <mxPoint x="183" y="184" as="targetPoint" />
          </mxGeometry>
        </mxCell>
        <mxCell id="VGy0ibJ3Ez5lEhXvUC-4-12" value="" style="endArrow=classic;html=1;rounded=0;exitX=0.5;exitY=1;exitDx=0;exitDy=0;entryX=0.5;entryY=0;entryDx=0;entryDy=0;fontSize=22;strokeWidth=3;" parent="1" source="VGy0ibJ3Ez5lEhXvUC-4-1" target="VGy0ibJ3Ez5lEhXvUC-4-6" edge="1">
          <mxGeometry width="50" height="50" relative="1" as="geometry">
            <mxPoint x="133" y="234" as="sourcePoint" />
            <mxPoint x="183" y="184" as="targetPoint" />
          </mxGeometry>
        </mxCell>
        <mxCell id="VGy0ibJ3Ez5lEhXvUC-4-13" value="" style="endArrow=classic;html=1;rounded=0;exitX=0.5;exitY=1;exitDx=0;exitDy=0;entryX=0.5;entryY=0;entryDx=0;entryDy=0;fontSize=22;strokeWidth=3;" parent="1" source="VGy0ibJ3Ez5lEhXvUC-4-1" target="VGy0ibJ3Ez5lEhXvUC-4-7" edge="1">
          <mxGeometry width="50" height="50" relative="1" as="geometry">
            <mxPoint x="133" y="234" as="sourcePoint" />
            <mxPoint x="183" y="184" as="targetPoint" />
          </mxGeometry>
        </mxCell>
        <mxCell id="VGy0ibJ3Ez5lEhXvUC-4-14" value="" style="endArrow=classic;html=1;rounded=0;exitX=0.5;exitY=1;exitDx=0;exitDy=0;entryX=0.5;entryY=0;entryDx=0;entryDy=0;fontSize=22;strokeWidth=3;" parent="1" source="VGy0ibJ3Ez5lEhXvUC-4-1" target="VGy0ibJ3Ez5lEhXvUC-4-8" edge="1">
          <mxGeometry width="50" height="50" relative="1" as="geometry">
            <mxPoint x="133" y="234" as="sourcePoint" />
            <mxPoint x="183" y="184" as="targetPoint" />
          </mxGeometry>
        </mxCell>
        <mxCell id="VGy0ibJ3Ez5lEhXvUC-4-16" value="" style="endArrow=classic;html=1;rounded=0;exitX=0.5;exitY=1;exitDx=0;exitDy=0;entryX=0.5;entryY=0;entryDx=0;entryDy=0;fontSize=22;strokeWidth=3;" parent="1" source="VGy0ibJ3Ez5lEhXvUC-4-4" target="VGy0ibJ3Ez5lEhXvUC-4-2" edge="1">
          <mxGeometry width="50" height="50" relative="1" as="geometry">
            <mxPoint x="133" y="234" as="sourcePoint" />
            <mxPoint x="183" y="184" as="targetPoint" />
          </mxGeometry>
        </mxCell>
        <mxCell id="VGy0ibJ3Ez5lEhXvUC-4-18" value="" style="endArrow=classic;html=1;rounded=0;entryX=0.5;entryY=0;entryDx=0;entryDy=0;fontSize=22;strokeWidth=3;" parent="1" source="VGy0ibJ3Ez5lEhXvUC-4-6" target="VGy0ibJ3Ez5lEhXvUC-4-2" edge="1">
          <mxGeometry width="50" height="50" relative="1" as="geometry">
            <mxPoint x="133" y="234" as="sourcePoint" />
            <mxPoint x="183" y="184" as="targetPoint" />
          </mxGeometry>
        </mxCell>
        <mxCell id="VGy0ibJ3Ez5lEhXvUC-4-19" value="" style="endArrow=classic;html=1;rounded=0;exitX=0.5;exitY=1;exitDx=0;exitDy=0;entryX=0.5;entryY=0;entryDx=0;entryDy=0;fontSize=22;strokeWidth=3;" parent="1" source="VGy0ibJ3Ez5lEhXvUC-4-8" target="VGy0ibJ3Ez5lEhXvUC-4-2" edge="1">
          <mxGeometry width="50" height="50" relative="1" as="geometry">
            <mxPoint x="133" y="234" as="sourcePoint" />
            <mxPoint x="183" y="184" as="targetPoint" />
          </mxGeometry>
        </mxCell>
      </root>
    </mxGraphModel>
  </diagram>
</mxfile>
